<svg xmlns="http://www.w3.org/2000/svg" viewBox="0 0 1280 640"><defs><style>.cls-1{fill:#ccc;}.cls-2{fill:#df6400;}.cls-3{fill:#ffac15;}.cls-4{fill:#ff9215;}</style></defs><g id="logo"><rect class="cls-1" x="118.85" y="293.54" width="9.15" height="9.15" rx="3"/><rect class="cls-1" x="180.1" y="169.27" width="9.15" height="9.15" rx="3"/><rect class="cls-1" x="300.57" y="293.54" width="9.15" height="9.15" rx="3"/><rect class="cls-1" x="300.57" y="169.27" width="9.15" height="9.15" rx="3"/><rect class="cls-1" x="239.57" y="169.27" width="9.15" height="9.15" rx="3"/><rect class="cls-1" x="118.85" y="230.26" width="9.15" height="9.15" rx="3"/><rect class="cls-1" x="300.57" y="230.26" width="9.15" height="9.15" rx="3"/><rect class="cls-1" x="361.56" y="230.26" width="9.15" height="9.15" rx="3"/><rect class="cls-1" x="422.55" y="230.26" width="9.15" height="9.15" rx="3"/><rect class="cls-1" x="361.56" y="293.54" width="9.15" height="9.15" rx="3"/><rect class="cls-1" x="422.55" y="293.54" width="9.15" height="9.15" rx="3"/><rect class="cls-1" x="422.55" y="169.27" width="9.15" height="9.15" rx="3"/><rect class="cls-1" x="361.56" y="169.27" width="9.15" height="9.15" rx="3"/><rect class="cls-1" x="118.85" y="479.83" width="9.15" height="9.15" rx="3"/><rect class="cls-1" x="180.1" y="479.83" width="9.15" height="9.15" rx="3"/><rect class="cls-1" x="180.1" y="355.56" width="9.15" height="9.15" rx="3"/><rect class="cls-1" x="118.85" y="355.56" width="9.15" height="9.15" rx="3"/><rect class="cls-1" x="239.57" y="479.83" width="9.15" height="9.15" rx="3"/><rect class="cls-1" x="300.57" y="479.83" width="9.15" height="9.15" rx="3"/><rect class="cls-1" x="239.57" y="355.56" width="9.15" height="9.15" rx="3"/><rect class="cls-1" x="118.85" y="416.55" width="9.15" height="9.15" rx="3"/><rect class="cls-1" x="180.1" y="416.55" width="9.15" height="9.15" rx="3"/><rect class="cls-1" x="239.57" y="416.55" width="9.15" height="9.15" rx="3"/><rect class="cls-1" x="300.57" y="416.55" width="9.15" height="9.15" rx="3"/><rect class="cls-1" x="361.56" y="479.83" width="9.15" height="9.15" rx="3"/><rect class="cls-1" x="422.55" y="479.83" width="9.15" height="9.15" rx="3"/><rect class="cls-1" x="422.55" y="355.56" width="9.15" height="9.15" rx="3"/><rect class="cls-1" x="361.56" y="355.56" width="9.15" height="9.15" rx="3"/><rect class="cls-2" x="161.8" y="275.25" width="45.75" height="45.75"/><rect class="cls-3" x="100.56" y="150.97" width="45.75" height="45.75"/><rect class="cls-3" x="221.27" y="275.25" width="45.75" height="45.75"/><rect class="cls-4" x="161.8" y="211.97" width="45.75" height="45.75"/><rect class="cls-3" x="221.27" y="211.97" width="45.75" height="45.75"/><rect class="cls-3" x="282.27" y="337.26" width="45.75" height="45.75"/><rect class="cls-4" x="343.26" y="398.25" width="45.75" height="45.75"/><rect class="cls-3" x="404.25" y="398.25" width="45.75" height="45.75"/></g><g id="wordmark"><path class="cls-3" d="M497.2,295.1a93.08,93.08,0,0,1,17-1.42c9.49,0,15.61,1.73,19.89,5.61a17.11,17.11,0,0,1,5.41,13c0,9.08-5.71,15.1-13,17.55v.3c5.31,1.84,8.47,6.74,10.1,13.88,2.25,9.59,3.88,16.22,5.31,18.87H532.8c-1.13-1.94-2.66-7.86-4.59-16.43-2-9.48-5.72-13.05-13.78-13.36h-8.36v29.79H497.2Zm8.87,31.32h9.08c9.48,0,15.5-5.2,15.5-13.06,0-8.87-6.42-12.75-15.81-12.85a36.36,36.36,0,0,0-8.77.82Z"/><path class="cls-3" d="M557.17,339.88c.21,12.14,8,17.14,16.93,17.14a32.4,32.4,0,0,0,13.67-2.55l1.53,6.43c-3.16,1.43-8.57,3.06-16.42,3.06-15.2,0-24.28-10-24.28-24.89s8.78-26.63,23.16-26.63c16.12,0,20.4,14.18,20.4,23.26a32,32,0,0,1-.31,4.18Zm26.32-6.42c.1-5.71-2.35-14.59-12.45-14.59-9.07,0-13,8.37-13.77,14.59Z"/><path class="cls-3" d="M638.47,361.1A33,33,0,0,1,624.29,364c-14.9,0-24.59-10.1-24.59-25.2s10.41-26.21,26.53-26.21a29.91,29.91,0,0,1,12.44,2.55l-2,6.93a20.86,20.86,0,0,0-10.4-2.34c-11.33,0-17.45,8.36-17.45,18.66,0,11.43,7.35,18.47,17.14,18.47a25.55,25.55,0,0,0,11-2.45Z"/><path class="cls-3" d="M693,337.84c0,18.26-12.65,26.22-24.59,26.22-13.36,0-23.66-9.79-23.66-25.4,0-16.53,10.81-26.22,24.48-26.22C683.45,312.44,693,322.75,693,337.84Zm-39.17.51c0,10.82,6.22,19,15,19,8.57,0,15-8.06,15-19.18,0-8.36-4.19-19-14.79-19S653.87,329,653.87,338.35Z"/><path class="cls-3" d="M704.36,329c0-5.81-.11-10.81-.41-15.4h7.85l.31,9.69h.41c2.24-6.63,7.65-10.82,13.66-10.82a9.78,9.78,0,0,1,2.55.31v8.47a13.05,13.05,0,0,0-3.06-.31c-6.32,0-10.81,4.8-12,11.53a24.56,24.56,0,0,0-.41,4.18v26.32h-8.87Z"/><path class="cls-3" d="M779.33,290.51v59.68c0,4.38.1,9.38.41,12.75h-8.06l-.41-8.57h-.2c-2.76,5.51-8.78,9.69-16.84,9.69-11.93,0-21.11-10.1-21.11-25.09-.1-16.43,10.1-26.53,22.13-26.53,7.55,0,12.65,3.58,14.9,7.55h.2V290.51Zm-9,43.15a15.61,15.61,0,0,0-.41-3.77,13.2,13.2,0,0,0-13-10.41c-9.28,0-14.79,8.16-14.79,19.08,0,10,4.89,18.26,14.58,18.26a13.49,13.49,0,0,0,13.16-10.71,15.46,15.46,0,0,0,.41-3.88Z"/><path class="cls-2" d="M794.52,294.19h8.88v61.3h29.38v7.45H794.52Z"/><path class="cls-2" d="M852.36,299.69c.1,3.06-2.15,5.51-5.72,5.51a5.34,5.34,0,0,1-5.4-5.51,5.47,5.47,0,0,1,5.61-5.61A5.33,5.33,0,0,1,852.36,299.69Zm-10,63.25V313.57h9v49.37Z"/><path class="cls-2" d="M866.23,326.93c0-5.1-.1-9.28-.41-13.36h8l.51,8.16h.2a18.17,18.17,0,0,1,16.32-9.29c6.84,0,17.44,4.09,17.44,21v29.48h-9V334.48c0-8-3-14.59-11.43-14.59a13.19,13.19,0,0,0-12.65,13.36v29.69h-9Z"/><path class="cls-2" d="M931.71,336.21h.21c1.22-1.73,3-3.87,4.38-5.61l14.49-17H961.6l-19.08,20.3,21.73,29.07H953.34l-17-23.67-4.59,5.1v18.57h-8.87V290.51h8.87Z"/><path class="cls-2" d="M999.85,362.94l-.72-6.23h-.3a18.39,18.39,0,0,1-15.1,7.35c-10,0-15.1-7-15.1-14.18,0-11.93,10.61-18.46,29.69-18.36v-1c0-4.08-1.13-11.42-11.22-11.42a24.55,24.55,0,0,0-12.86,3.67l-2-5.92a30.67,30.67,0,0,1,16.22-4.39c15.1,0,18.77,10.31,18.77,20.2V351.1a68.76,68.76,0,0,0,.82,11.84Zm-1.33-25.2c-9.79-.2-20.91,1.53-20.91,11.12,0,5.81,3.88,8.57,8.47,8.57A12.29,12.29,0,0,0,998,349.17a9.27,9.27,0,0,0,.51-2.86Z"/><path class="cls-2" d="M1064.21,313.57c-.21,3.57-.41,7.55-.41,13.56V355.8c0,11.32-2.24,18.26-7,22.54-4.79,4.49-11.73,5.92-18,5.92-5.92,0-12.44-1.43-16.42-4.08l2.24-6.84a27.88,27.88,0,0,0,14.49,3.88c9.18,0,15.91-4.8,15.91-17.24v-5.51h-.21c-2.75,4.59-8,8.26-15.7,8.26-12.24,0-21-10.4-21-24.07,0-16.73,10.92-26.22,22.24-26.22,8.57,0,13.26,4.49,15.4,8.57h.21l.4-7.44Zm-9.28,19.48a13,13,0,0,0-.51-4.08c-1.64-5.2-6-9.49-12.55-9.49-8.57,0-14.69,7.25-14.69,18.67,0,9.69,4.9,17.75,14.59,17.75a13.12,13.12,0,0,0,12.44-9.18,15.66,15.66,0,0,0,.72-4.8Z"/><path class="cls-2" d="M1083.69,339.88c.2,12.14,8,17.14,16.93,17.14a32.44,32.44,0,0,0,13.67-2.55l1.53,6.43c-3.16,1.43-8.57,3.06-16.42,3.06-15.2,0-24.28-10-24.28-24.89s8.77-26.63,23.15-26.63c16.12,0,20.41,14.18,20.41,23.26a33.84,33.84,0,0,1-.31,4.18Zm26.31-6.42c.11-5.71-2.34-14.59-12.44-14.59-9.08,0-13.06,8.37-13.77,14.59Z"/></g></svg>